<svg xmlns="http://www.w3.org/2000/svg" width="19.795" height="23.726" viewBox="0 0 19.795 23.726">
  <g id="user" transform="translate(0 0)">
    <path id="Path_8" data-name="Path 8" d="M92.746,11.429a5.529,5.529,0,0,0,4.041-1.674,5.529,5.529,0,0,0,1.674-4.04,5.53,5.53,0,0,0-1.674-4.04,5.713,5.713,0,0,0-8.081,0,5.53,5.53,0,0,0-1.674,4.04,5.529,5.529,0,0,0,1.674,4.041A5.531,5.531,0,0,0,92.746,11.429Zm0,0" transform="translate(-82.999)" fill="#fff"/>
    <path id="Path_9" data-name="Path 9" d="M19.747,254.1a14.115,14.115,0,0,0-.192-1.5,11.812,11.812,0,0,0-.369-1.507,7.445,7.445,0,0,0-.62-1.406,5.3,5.3,0,0,0-.934-1.218,4.119,4.119,0,0,0-1.342-.843,4.639,4.639,0,0,0-1.713-.31,1.739,1.739,0,0,0-.929.394c-.278.182-.6.392-.968.624a5.544,5.544,0,0,1-1.252.552,4.862,4.862,0,0,1-3.062,0,5.531,5.531,0,0,1-1.251-.551c-.36-.23-.686-.44-.968-.624a1.737,1.737,0,0,0-.928-.394,4.633,4.633,0,0,0-1.713.31,4.116,4.116,0,0,0-1.342.843,5.306,5.306,0,0,0-.934,1.218,7.46,7.46,0,0,0-.62,1.406A11.838,11.838,0,0,0,.239,252.6a14.065,14.065,0,0,0-.192,1.5c-.031.454-.047.925-.047,1.4a3.94,3.94,0,0,0,1.17,2.981,4.212,4.212,0,0,0,3.015,1.1H15.609a4.211,4.211,0,0,0,3.015-1.1,3.938,3.938,0,0,0,1.17-2.981c0-.478-.016-.95-.048-1.4Zm0,0" transform="translate(0 -235.855)" fill="#fff"/>
  </g>
</svg>
